<?xml version="1.0" encoding="UTF-8"?>
<svg width="400.089286px" height="181.8px" viewBox="0 0 400.089286 181.8" version="1.1" xmlns="http://www.w3.org/2000/svg" xmlns:xlink="http://www.w3.org/1999/xlink">
    <title>greyhound copy@2x</title>
    <g id="Page-1" stroke="none" stroke-width="1" fill="none" fill-rule="evenodd">
        <g id="greyhound-copy" fill="#BABABA" fill-rule="nonzero">
            <path d="M373.789286,12.4 C370.189286,10.4 367.989286,8.4 360.789286,5.2 C353.589286,2.1 344.189286,4.1 337.689286,4.5 C331.189286,4.9 318.589286,0 318.589286,0 C318.389286,9.9 325.089286,16.1 325.089286,16.1 C314.989286,19.2 302.789286,33.9 292.989286,38.6 C283.189286,43.3 257.289286,34.6 225.689286,23.5 C194.089286,12.4 171.189286,16.4 145.289286,30.9 C139.489286,34.1 135.189286,38 131.889286,41.9 C120.489286,46.9 109.489286,54.1 98.8892857,63.6 C83.5892857,77.5 68.0892857,84.1 52.8892857,83.2 C31.5892857,82 15.4892857,66 9.58928571,59.1 C7.58928571,56.8 4.18928571,56.6 1.88928571,58.5 C-0.410714286,60.4 -0.610714286,63.9 1.28928571,66.2 C9.78928571,76 27.6892857,92.7 52.3892857,94.1 C53.5892857,94.2 54.6892857,94.2 55.8892857,94.2 C72.9892857,94.2 89.9892857,86.6 106.389286,71.7 C111.889286,66.7 117.589286,62.4 123.389286,58.8 C121.489286,66.1 121.989286,71.5 121.989286,71.5 C121.989286,71.5 118.289286,102.1 149.889286,102.4 C181.489286,102.7 178.789286,108.8 183.489286,122.6 C185.289286,127.8 185.289286,133.1 185.389286,138.1 C185.389286,138.1 156.189286,160.6 151.789286,161.3 C147.389286,162 116.589286,168.4 121.689286,181.8 C121.689286,181.8 133.289286,181.8 149.089286,171.7 C161.189286,164 174.589286,161.6 189.289286,153.2 C190.589286,154.5 192.189286,155.7 194.489286,156.5 C207.289286,161.2 228.189286,162.4 242.889286,167.4 C245.789286,168.4 248.789286,168.7 251.789286,168.5 C256.989286,168.2 263.689286,167.1 262.489286,163.5 C260.489286,157.8 253.089286,156.3 240.589286,156.1 C221.689286,155.8 217.589286,154.1 212.389286,149 C207.889286,144.5 202.389286,138.9 202.389286,118.9 L202.389286,118.9 L202.389286,118.9 C202.189286,114.1 201.689286,100.9 202.489286,89.4 C203.389286,75.1 177.389286,56.2 177.389286,56.2 C206.489286,72.1 205.389286,84.5 207.389286,90.3 C209.389286,96.1 221.289286,99.9 221.289286,99.9 L206.389286,116.4 C206.489286,122.8 207.089286,134.6 210.589286,142.8 C211.889286,136.6 217.989286,133.1 227.789286,128.5 C238.589286,123.5 280.889286,111 288.989286,99.9 C297.089286,88.8 330.289286,48.3 347.989286,43.4 C365.689286,38.5 360.989286,39 367.389286,39 L395.289286,39 C397.889286,39 400.089286,36.9 400.089286,34.2 L400.089286,29.1 C399.989286,26.6 373.789286,12.4 373.789286,12.4 Z" id="Path"></path>
        </g>
    </g>
</svg>